<svg width="86" height="27" viewBox="0 0 86 27" fill="none" xmlns="http://www.w3.org/2000/svg">
<path d="M41.1725 21.0228L43.7117 0.530346H47.6L45.0481 21.0228H41.1725Z" fill="#04F77C"/>
<path d="M17.6191 2.41831C17.5896 3.47085 18.4124 4.3474 19.4559 4.37707C19.4753 4.37707 19.4953 4.37774 19.5147 4.37774C20.5709 4.35279 21.4251 3.50389 21.4639 2.43989C21.4445 1.38398 20.6044 0.530352 19.5575 0.502032C18.5321 0.45753 17.6645 1.25991 17.6204 2.29357C17.6184 2.33537 17.6184 2.37718 17.6191 2.41831Z" fill="#FCFCFC"/>
<path d="M40.2734 9.30598C40.0199 8.57979 39.6326 7.92238 39.1229 7.35127C38.1021 6.20838 36.2452 5.62244 33.6051 5.60963H33.4733C30.8585 5.60963 28.7241 6.116 27.1287 7.1146C26.7207 7.3715 26.3581 7.62839 26.0404 7.88259L26.1521 6.96356L26.2973 6.24277H26.2397L26.2973 5.77078H22.4029L19.944 25.9618H23.8384L24.615 19.6109C24.615 19.6061 24.6143 19.6021 24.6136 19.5974L24.7126 18.7856C24.9574 19.0276 25.2491 19.2791 25.5916 19.5434C26.8953 20.5252 28.8732 21.0228 31.4713 21.0228H31.6679C37.0299 20.9702 39.9363 18.4491 40.5537 13.3152C40.6232 12.7239 40.6574 12.2114 40.6574 11.7495C40.6574 10.8568 40.5283 10.0342 40.2734 9.30598ZM36.5864 13.3442C36.472 14.2888 36.272 15.1034 35.9937 15.7648C35.7068 16.4465 35.3248 16.9913 34.8599 17.3837C33.9308 18.1801 32.5295 18.5671 30.5756 18.5671C28.6217 18.5671 27.3428 18.2077 26.4156 17.468C25.6143 16.8302 25.2083 15.9786 25.2083 14.9355C25.2083 14.835 25.2083 14.7217 25.2237 14.6132L25.5534 11.9275V11.9221C25.7514 10.7725 26.3748 9.8454 27.4063 9.16573C28.4873 8.4355 29.9655 8.06532 31.801 8.06532C32.7556 8.06532 33.5636 8.15095 34.2024 8.32019C34.8613 8.49483 35.3643 8.76387 35.6967 9.12123C36.3416 9.81303 36.668 10.7961 36.668 12.0422C36.668 12.4339 36.6412 12.8715 36.5871 13.3449L36.5864 13.3442Z" fill="#04F77C"/>
<path d="M66.8432 10.4658C66.8432 9.47188 66.5596 8.59938 66.0004 7.87184C65.4392 7.15576 64.6499 6.6123 63.6539 6.25629C62.6204 5.90499 60.7655 5.72698 58.1427 5.72698C56.6712 5.72698 55.5266 5.78227 54.6437 5.8969C53.7086 6.01624 52.8122 6.21246 51.9038 6.49565C50.9901 6.79435 50.2041 7.26567 49.5005 7.93657C48.861 8.54678 48.4202 9.43884 48.1894 10.5905H51.655C51.8022 9.86229 52.1246 9.30534 52.6136 8.93247L52.6162 8.93044C53.1346 8.54746 53.7634 8.29663 54.5955 8.14087C55.3514 7.99927 56.3079 7.93387 57.6043 7.93387C58.9709 7.93387 60.0337 7.99725 60.7635 8.12199H60.7675C61.498 8.26157 62.0558 8.54139 62.4264 8.95337C62.7903 9.35793 62.9743 9.88926 62.9743 10.5318C62.9743 10.6748 62.9629 10.8258 62.9502 10.9849L62.9468 11.0315L62.8151 12.0591H55.7935C54.1407 12.0591 52.6249 12.2391 51.2884 12.5938C50.5761 12.7826 49.9319 13.0577 49.3734 13.411C48.7867 13.7919 48.3426 14.21 48.0168 14.6901C47.6523 15.2268 47.4309 15.8431 47.3406 16.574C47.3151 16.8053 47.3031 17.021 47.3031 17.2341C47.3031 18.3534 47.7138 19.1955 48.5593 19.8098C49.3928 20.4227 51.0831 21.1536 54.4036 21.1536C56.5367 21.1536 58.1421 20.917 59.3127 20.4308L59.316 20.4295C59.9207 20.1881 60.4431 19.8934 60.8692 19.5522C61.2385 19.2475 61.6766 18.8031 62.1736 18.2286L61.89 20.9554H65.6104L66.779 11.3639C66.8232 10.9924 66.8432 10.7152 66.8432 10.4664V10.4658ZM62.3134 16.1512L62.3114 16.1593C62.1916 16.5929 61.8746 17.0359 61.395 17.4411C60.9468 17.82 60.3809 18.1477 59.7608 18.3884C58.6585 18.8233 57.3153 19.0256 55.5327 19.0256C54.1875 19.0256 53.235 18.8941 52.536 18.6123C52.1079 18.4397 51.7808 18.1976 51.5627 17.8929C51.3466 17.5908 51.2376 17.2267 51.2376 16.8106C51.2376 16.7021 51.249 16.5989 51.2617 16.4897L51.2664 16.4499C51.3921 15.4972 51.9306 14.8121 52.8671 14.4143C53.5948 14.1055 54.55 13.9619 55.8745 13.9619H62.6191L62.4753 15.3461L62.3147 16.1512H62.3134Z" fill="#04F77C"/>
<path d="M81.7906 5.77022L75.44 18.1269L75.0781 16.8202C75.0728 16.75 75.0627 16.6813 75.0487 16.6226L72.0185 5.77022H67.7683L72.3597 21.1456H73.9851L73.7376 21.4962C72.9831 22.5656 72.3878 23.1731 71.9182 23.3525L71.9142 23.3539C71.749 23.4139 71.2453 23.5959 66.5402 23.5959H66.2091L65.8552 26.5H65.9549C69.7891 26.5 72.3075 26.353 73.4406 26.0631C74.5096 25.7866 75.9096 24.1704 77.6026 21.2602L86 5.77022H81.7913H81.7906Z" fill="#04F77C"/>
<path d="M18.5146 7.3398C17.5976 6.35065 15.7206 5.83551 12.9366 5.80988H12.744C11.4657 5.80988 10.2985 5.9353 9.2757 6.18275C8.25628 6.42886 7.34991 6.80376 6.58134 7.29665C6.16595 7.5704 5.80741 7.83135 5.49771 8.08555L5.59804 7.23934C5.60607 7.22652 5.61075 7.21709 5.61209 7.21304V7.2063L6.39806 0.5H2.57391L0.120361 21.0646H3.95655L4.11173 19.7619V19.7605L4.20672 18.9575C4.44752 19.1982 4.73448 19.4436 5.06827 19.6931C6.37264 20.6823 8.33722 21.1833 10.9078 21.1833H11.0369C13.8249 21.1704 15.92 20.5697 17.2658 19.3978C17.9253 18.8233 18.4705 18.0337 18.8859 17.0506C19.304 16.0615 19.6023 14.8471 19.7742 13.4406V13.4386C19.8591 12.796 19.902 12.1649 19.902 11.5628C19.902 9.75234 19.4357 8.33166 18.516 7.33913L18.5146 7.3398ZM15.8651 13.5256C15.7467 14.5039 15.5587 15.3394 15.3072 16.0103C15.047 16.7027 14.7099 17.2435 14.3045 17.6157C13.8958 17.9913 13.3186 18.2758 12.5881 18.4612C11.8731 18.6426 10.9901 18.7343 9.96333 18.7343C9.06499 18.7343 8.26832 18.6419 7.59406 18.4599C6.91311 18.2758 6.33585 17.9953 5.87898 17.6245C5.09235 16.9886 4.69368 16.1518 4.69368 15.1384C4.69368 15.0433 4.69368 14.9253 4.7084 14.806L5.01944 12.1386V12.1332C5.21008 10.9815 5.82614 10.043 6.85024 9.34373C7.37934 8.9803 8.01414 8.70453 8.73656 8.5245C9.44694 8.34784 10.2643 8.25816 11.166 8.25816C13.2804 8.25816 14.5841 8.58316 15.152 9.25203L15.1541 9.25406C15.6959 9.90877 15.9708 10.8413 15.9708 12.026C15.9708 12.44 15.9367 12.9295 15.8658 13.5242L15.8651 13.5256Z" fill="#04F77C"/>
</svg>
